<mxfile host="65bd71144e">
    <diagram id="CKinMkFbDKcQTunNenve" name="Operation Result">
        <mxGraphModel dx="2151" dy="1416" grid="1" gridSize="10" guides="1" tooltips="1" connect="1" arrows="1" fold="1" page="0" pageScale="1" pageWidth="850" pageHeight="1100" math="0" shadow="0">
            <root>
                <mxCell id="03mLGJdyYgZ_ywSVlZDO-0"/>
                <mxCell id="03mLGJdyYgZ_ywSVlZDO-1" parent="03mLGJdyYgZ_ywSVlZDO-0"/>
                <mxCell id="03mLGJdyYgZ_ywSVlZDO-2" value="" style="shape=umlLifeline;participant=umlActor;perimeter=lifelinePerimeter;whiteSpace=wrap;html=1;container=1;collapsible=0;recursiveResize=0;verticalAlign=top;spacingTop=36;labelBackgroundColor=#ffffff;outlineConnect=0;fontFamily=Helvetica;align=left;" parent="03mLGJdyYgZ_ywSVlZDO-1" vertex="1">
                    <mxGeometry x="70" y="120" width="20" height="270" as="geometry"/>
                </mxCell>
                <mxCell id="03mLGJdyYgZ_ywSVlZDO-4" value="" style="html=1;points=[];perimeter=orthogonalPerimeter;fontFamily=Helvetica;align=center;" parent="03mLGJdyYgZ_ywSVlZDO-2" vertex="1">
                    <mxGeometry x="5" y="70" width="10" height="180" as="geometry"/>
                </mxCell>
                <mxCell id="03mLGJdyYgZ_ywSVlZDO-10" value="" style="html=1;points=[];perimeter=orthogonalPerimeter;fontFamily=Helvetica;align=center;" parent="03mLGJdyYgZ_ywSVlZDO-2" vertex="1">
                    <mxGeometry x="10" y="200" width="10" height="40" as="geometry"/>
                </mxCell>
                <mxCell id="03mLGJdyYgZ_ywSVlZDO-11" value="Handle(result)" style="edgeStyle=orthogonalEdgeStyle;html=1;align=left;spacingLeft=2;endArrow=block;rounded=0;entryX=1;entryY=0;fontFamily=Helvetica;" parent="03mLGJdyYgZ_ywSVlZDO-2" target="03mLGJdyYgZ_ywSVlZDO-10" edge="1">
                    <mxGeometry relative="1" as="geometry">
                        <mxPoint x="15" y="180" as="sourcePoint"/>
                        <Array as="points">
                            <mxPoint x="40" y="180"/>
                        </Array>
                    </mxGeometry>
                </mxCell>
                <mxCell id="03mLGJdyYgZ_ywSVlZDO-3" value="&lt;div style=&quot;text-align: center&quot;&gt;&lt;span&gt;:Executor&lt;/span&gt;&lt;/div&gt;" style="shape=umlLifeline;perimeter=lifelinePerimeter;whiteSpace=wrap;html=1;container=1;collapsible=0;recursiveResize=0;outlineConnect=0;fontFamily=Helvetica;align=center;" parent="03mLGJdyYgZ_ywSVlZDO-1" vertex="1">
                    <mxGeometry x="230" y="120" width="100" height="270" as="geometry"/>
                </mxCell>
                <mxCell id="03mLGJdyYgZ_ywSVlZDO-5" value="" style="html=1;points=[];perimeter=orthogonalPerimeter;fontFamily=Helvetica;align=center;" parent="03mLGJdyYgZ_ywSVlZDO-3" vertex="1">
                    <mxGeometry x="45" y="80" width="10" height="80" as="geometry"/>
                </mxCell>
                <mxCell id="03mLGJdyYgZ_ywSVlZDO-6" value="Operation()" style="html=1;verticalAlign=bottom;endArrow=block;entryX=0;entryY=0;fontFamily=Helvetica;" parent="03mLGJdyYgZ_ywSVlZDO-1" source="03mLGJdyYgZ_ywSVlZDO-4" target="03mLGJdyYgZ_ywSVlZDO-5" edge="1">
                    <mxGeometry relative="1" as="geometry">
                        <mxPoint x="205" y="200" as="sourcePoint"/>
                    </mxGeometry>
                </mxCell>
                <mxCell id="03mLGJdyYgZ_ywSVlZDO-7" value="return new OperationResult()" style="html=1;verticalAlign=bottom;endArrow=open;dashed=1;endSize=8;exitX=0;exitY=0.95;fontFamily=Helvetica;" parent="03mLGJdyYgZ_ywSVlZDO-1" source="03mLGJdyYgZ_ywSVlZDO-5" target="03mLGJdyYgZ_ywSVlZDO-4" edge="1">
                    <mxGeometry relative="1" as="geometry">
                        <mxPoint x="205" y="276" as="targetPoint"/>
                    </mxGeometry>
                </mxCell>
                <mxCell id="Xs377tFSFdaaj3lOK2G9-0" value="Client" style="html=1;" vertex="1" parent="03mLGJdyYgZ_ywSVlZDO-1">
                    <mxGeometry x="480" y="120" width="120" height="50" as="geometry"/>
                </mxCell>
                <mxCell id="Xs377tFSFdaaj3lOK2G9-1" value="OperationResult" style="swimlane;fontStyle=1;align=center;verticalAlign=top;childLayout=stackLayout;horizontal=1;startSize=26;horizontalStack=0;resizeParent=1;resizeParentMax=0;resizeLast=0;collapsible=1;marginBottom=0;" vertex="1" parent="03mLGJdyYgZ_ywSVlZDO-1">
                    <mxGeometry x="950" y="145" width="190" height="52" as="geometry"/>
                </mxCell>
                <mxCell id="Xs377tFSFdaaj3lOK2G9-2" value="«read-only» + Succeeded: bool" style="text;strokeColor=default;fillColor=default;align=left;verticalAlign=top;spacingLeft=4;spacingRight=4;overflow=hidden;rotatable=0;points=[[0,0.5],[1,0.5]];portConstraint=eastwest;fontFamily=Helvetica;" vertex="1" parent="Xs377tFSFdaaj3lOK2G9-1">
                    <mxGeometry y="26" width="190" height="26" as="geometry"/>
                </mxCell>
                <mxCell id="Xs377tFSFdaaj3lOK2G9-3" value="Executor" style="swimlane;fontStyle=1;align=center;verticalAlign=top;childLayout=stackLayout;horizontal=1;startSize=26;horizontalStack=0;resizeParent=1;resizeParentMax=0;resizeLast=0;collapsible=1;marginBottom=0;" vertex="1" parent="03mLGJdyYgZ_ywSVlZDO-1">
                    <mxGeometry x="680" y="132" width="190" height="52" as="geometry"/>
                </mxCell>
                <mxCell id="Xs377tFSFdaaj3lOK2G9-4" value="+ Operation(): OperationResult" style="text;strokeColor=default;fillColor=default;align=left;verticalAlign=top;spacingLeft=4;spacingRight=4;overflow=hidden;rotatable=0;points=[[0,0.5],[1,0.5]];portConstraint=eastwest;" vertex="1" parent="Xs377tFSFdaaj3lOK2G9-3">
                    <mxGeometry y="26" width="190" height="26" as="geometry"/>
                </mxCell>
                <mxCell id="Xs377tFSFdaaj3lOK2G9-5" value="" style="endArrow=diamondThin;endFill=0;endSize=14;html=1;rounded=0;exitX=0;exitY=0.25;exitDx=0;exitDy=0;" edge="1" parent="03mLGJdyYgZ_ywSVlZDO-1" source="Xs377tFSFdaaj3lOK2G9-3" target="Xs377tFSFdaaj3lOK2G9-0">
                    <mxGeometry width="160" relative="1" as="geometry">
                        <mxPoint x="480" y="211" as="sourcePoint"/>
                        <mxPoint x="400" y="211" as="targetPoint"/>
                    </mxGeometry>
                </mxCell>
                <mxCell id="Xs377tFSFdaaj3lOK2G9-6" value="" style="endArrow=open;endSize=12;dashed=1;html=1;exitX=1;exitY=0.5;exitDx=0;exitDy=0;" edge="1" parent="03mLGJdyYgZ_ywSVlZDO-1" source="Xs377tFSFdaaj3lOK2G9-4" target="Xs377tFSFdaaj3lOK2G9-1">
                    <mxGeometry width="160" relative="1" as="geometry">
                        <mxPoint x="580" y="302" as="sourcePoint"/>
                        <mxPoint x="740" y="302" as="targetPoint"/>
                    </mxGeometry>
                </mxCell>
                <mxCell id="Xs377tFSFdaaj3lOK2G9-7" value="Operation() returns a new OperationResult();" style="shape=note;whiteSpace=wrap;html=1;size=14;verticalAlign=top;align=left;spacingTop=-6;" vertex="1" parent="03mLGJdyYgZ_ywSVlZDO-1">
                    <mxGeometry x="630" y="224" width="130" height="38" as="geometry"/>
                </mxCell>
                <mxCell id="Xs377tFSFdaaj3lOK2G9-8" style="rounded=0;elbow=vertical;html=1;jettySize=auto;orthogonalLoop=1;dashed=1;endArrow=none;endFill=0;entryX=0;entryY=0.5;entryDx=0;entryDy=0;" edge="1" parent="03mLGJdyYgZ_ywSVlZDO-1" source="Xs377tFSFdaaj3lOK2G9-7" target="Xs377tFSFdaaj3lOK2G9-4">
                    <mxGeometry relative="1" as="geometry">
                        <Array as="points">
                            <mxPoint x="650" y="192"/>
                        </Array>
                        <mxPoint x="990" y="211" as="sourcePoint"/>
                        <mxPoint x="640" y="211" as="targetPoint"/>
                    </mxGeometry>
                </mxCell>
                <mxCell id="Xs377tFSFdaaj3lOK2G9-9" value="" style="endArrow=none;html=1;" edge="1" parent="03mLGJdyYgZ_ywSVlZDO-1">
                    <mxGeometry width="50" height="50" relative="1" as="geometry">
                        <mxPoint x="-30" y="90" as="sourcePoint"/>
                        <mxPoint x="20" y="40" as="targetPoint"/>
                    </mxGeometry>
                </mxCell>
                <mxCell id="Xs377tFSFdaaj3lOK2G9-10" value="" style="endArrow=none;html=1;" edge="1" parent="03mLGJdyYgZ_ywSVlZDO-1">
                    <mxGeometry width="50" height="50" relative="1" as="geometry">
                        <mxPoint x="1220" y="530" as="sourcePoint"/>
                        <mxPoint x="1270" y="480" as="targetPoint"/>
                    </mxGeometry>
                </mxCell>
            </root>
        </mxGraphModel>
    </diagram>
</mxfile>